<svg xmlns="http://www.w3.org/2000/svg" xmlns:xlink="http://www.w3.org/1999/xlink" version="1.1" x="0px" y="0px" viewBox="0 0 100 125" enable-background="new 0 0 100 100" xml:space="preserve"><path d="M81.1,50.8c0.8,1,0.4,2.3-0.7,3C80,54,79.5,54.2,79,54.2c-0.8,0-1.6-0.3-2.1-1c-4.1-5.3-6.2-11.3-6.2-17.6  c0-6.2,2.1-12.3,6.2-17.5c0.5-0.6,1.3-1,2.1-1c0.5,0,0.9,0.1,1.4,0.4c1.2,0.6,1.5,2,0.7,3c-3.5,4.6-5.4,9.8-5.4,15.2  C75.7,41,77.6,46.3,81.1,50.8z M85.9,35.6c0-3.7,1.2-7.3,3.6-10.5c0.7-1,0.4-2.3-0.8-2.9c-0.4-0.2-0.9-0.3-1.3-0.3  c-0.8,0-1.6,0.3-2.1,1c-2.9,3.8-4.4,8.2-4.4,12.8c0,4.6,1.5,9,4.4,12.8c0.5,0.6,1.3,1,2.1,1c0.5,0,0.9-0.1,1.4-0.3  c1.2-0.6,1.5-2,0.7-3C87.1,43,85.9,39.4,85.9,35.6z M57.8,36.1c-4.6,1.2-11.2,2.2-19.8,2.2c-9.6,0-16.9-1.3-21.4-2.7  c-1-0.3-1.7-1.3-1.7-2.4c0-0.3,0-0.6,0-0.8c0.1-1.9,0.5-3.8,1.1-5.6C19,17.7,27.7,11,38,11c9.5,0,17.7,5.8,21.3,14  c0.6-2.1,1.4-4.2,2.4-6.2C56.6,11.1,47.9,6,38,6C24.1,6,12.6,16,10.3,29.2c-0.3,1.6-0.4,3.3-0.4,5c0,0.5,0,1,0,1.6  c0.1,1.6,1.1,3,2.6,3.7L22,70.1c0.3,1.1,1.3,1.8,2.4,1.8c0.2,0,0.5,0,0.7-0.1c1.3-0.4,2.1-1.8,1.6-3.1l-8.5-27.4  c2,0.5,4.1,0.9,6.4,1.2c0,0.1,0,0.1,0,0.2L28,63.4c0.2,1.2,1.3,2.1,2.5,2.1c0.1,0,0.3,0,0.4,0c1.4-0.2,2.3-1.5,2.1-2.9l-3.2-19.5  c2,0.2,4.1,0.3,6.2,0.3V68c0,1.4,1.1,2.5,2.5,2.5S41,69.4,41,68V43.3c2-0.1,3.9-0.2,5.8-0.3l-3.2,19.6c-0.2,1.4,0.7,2.6,2.1,2.9  c0.1,0,0.3,0,0.4,0c1.2,0,2.3-0.9,2.5-2.1l3.3-20.7c0-0.1,0-0.2,0-0.3c2.1-0.3,4-0.7,5.8-1.1l-8.5,27.4c-0.4,1.3,0.3,2.7,1.6,3.1  c0.2,0.1,0.5,0.1,0.7,0.1c1.1,0,2.1-0.7,2.4-1.8l6.4-20.5C58.7,45.3,57.8,40.8,57.8,36.1z M53.5,75.3c0,0.5-0.1,0.9-0.3,1.3  c-0.4,0.8-0.7,1.6-0.9,2.5c-0.7,3-2,8.5-2,8.5C49,90.9,45.9,93,42.4,93h-4.1h-0.5h-0.5h-3.6c-3.5,0-6.7-2.2-7.9-5.5l-0.1-0.3  l-1.8-7.8c-0.3-1.1-0.7-2.2-1.1-3.2c-0.1-0.3-0.2-0.6-0.2-1c0.1-1.3,1.3-2.3,2.6-2.3h25.7C52.2,73,53.4,73.9,53.5,75.3z M47.5,78  H36.7c-4.2,0-7.2,3.9-6.3,7.9c0.6,1.3,1.8,2.1,3.2,2.1h4.1h0.5h0.5h3.6c1.4,0,2.7-0.8,3.2-2.1L47.5,78z M68.5,57.9  c0.5,0.6,1.3,1,2.1,1c0.5,0,0.9-0.1,1.4-0.3c1.2-0.6,1.5-2,0.7-3c-4.6-5.9-7-12.9-7-20c0-7.1,2.4-14,6.9-19.9c0.8-1,0.4-2.3-0.7-3  c-0.4-0.2-0.9-0.3-1.4-0.3c-0.8,0-1.6,0.3-2.1,1c-5.1,6.6-7.7,14.3-7.7,22.2C60.7,43.6,63.4,51.3,68.5,57.9z"/><text x="0" y="115" fill="#000000" font-size="5px" font-weight="bold" font-family="'Helvetica Neue', Helvetica, Arial-Unicode, Arial, Sans-serif">Created by Eli Revzin</text><text x="0" y="120" fill="#000000" font-size="5px" font-weight="bold" font-family="'Helvetica Neue', Helvetica, Arial-Unicode, Arial, Sans-serif">from the Noun Project</text></svg>