<svg xmlns="http://www.w3.org/2000/svg" xmlns:xlink="http://www.w3.org/1999/xlink" version="1.1" x="0px" y="0px" viewBox="0 0 100 125" enable-background="new 0 0 100 100" xml:space="preserve"><path d="M77.7,29.2C75.4,16,63.9,6,50,6S24.6,16,22.3,29.2c-0.3,1.6-0.4,3.3-0.4,5c0,0.5,0,1,0,1.6c0.1,1.6,1.1,3,2.6,3.7L34,70.1  c0.3,1.1,1.3,1.8,2.4,1.8c0.2,0,0.5,0,0.7-0.1c1.3-0.4,2.1-1.8,1.6-3.1l-8.5-27.4c2,0.5,4.1,0.9,6.4,1.2c0,0.1,0,0.1,0,0.2L40,63.4  c0.2,1.2,1.3,2.1,2.5,2.1c0.1,0,0.3,0,0.4,0c1.4-0.2,2.3-1.5,2.1-2.9l-3.2-19.5c2,0.2,4.1,0.3,6.2,0.3V68c0,1.4,1.1,2.5,2.5,2.5  S53,69.4,53,68V43.3c2-0.1,3.9-0.2,5.8-0.3l-3.2,19.6c-0.2,1.4,0.7,2.6,2.1,2.9c0.1,0,0.3,0,0.4,0c1.2,0,2.3-0.9,2.5-2.1l3.3-20.7  c0-0.1,0-0.2,0-0.3c2.1-0.3,4-0.7,5.8-1.1l-8.5,27.4c-0.4,1.3,0.3,2.7,1.6,3.1c0.2,0.1,0.5,0.1,0.7,0.1c1.1,0,2.1-0.7,2.4-1.8  l9.6-30.7c1.5-0.7,2.5-2.1,2.6-3.7c0-0.5,0-1,0-1.6C78.2,32.5,78,30.8,77.7,29.2z M26.9,32.6c0.1-1.9,0.5-3.8,1.1-5.6  C31,17.7,39.7,11,50,11s19,6.7,22,15.9c0.6,1.8,1,3.7,1.1,5.6c0,0.2,0,0.4,0,0.8c0,1.1-0.7,2-1.7,2.4c-4.6,1.4-11.8,2.7-21.4,2.7  s-16.9-1.3-21.4-2.7c-1-0.3-1.7-1.3-1.7-2.4C26.9,33,26.9,32.7,26.9,32.6z M62.8,73H37.1c-1.3,0-2.5,1-2.6,2.3c0,0.4,0,0.6,0.2,1  c0.4,1,0.9,2.1,1.1,3.2l1.8,7.8l0.1,0.3c1.3,3.3,4.4,5.5,7.9,5.5h3.6h0.5h0.5h4.1c3.5,0,6.7-2.1,7.9-5.4c0,0,1.3-5.5,2-8.5  c0.2-0.9,0.4-1.7,0.9-2.5c0.2-0.4,0.3-0.8,0.3-1.3C65.4,73.9,64.2,73,62.8,73z M57.6,85.9C57,87.2,55.8,88,54.4,88h-3.6h-0.5h-0.5  h-4.1c-1.4,0-2.7-0.8-3.2-2.1c-0.9-4,2.1-7.9,6.3-7.9h10.8L57.6,85.9z"/><text x="0" y="115" fill="#000000" font-size="5px" font-weight="bold" font-family="'Helvetica Neue', Helvetica, Arial-Unicode, Arial, Sans-serif">Created by Eli Revzin</text><text x="0" y="120" fill="#000000" font-size="5px" font-weight="bold" font-family="'Helvetica Neue', Helvetica, Arial-Unicode, Arial, Sans-serif">from the Noun Project</text></svg>