<svg xmlns="http://www.w3.org/2000/svg" xmlns:xlink="http://www.w3.org/1999/xlink" version="1.1" x="0px" y="0px" viewBox="0 0 100 125" enable-background="new 0 0 100 100" xml:space="preserve"><path d="M62.8,73H37.1c-1.3,0-2.5,1-2.6,2.3c0,0.4,0,0.6,0.2,1c0.4,1,0.9,2.1,1.1,3.2l1.8,7.8l0.1,0.3c1.3,3.3,4.4,5.5,7.9,5.5h3.6  h0.5h0.5h4.1c3.5,0,6.7-2.1,7.9-5.4c0,0,1.3-5.5,2-8.5c0.2-0.9,0.4-1.7,0.9-2.5c0.2-0.4,0.3-0.8,0.3-1.3C65.4,73.9,64.2,73,62.8,73z   M57.6,85.9C57,87.2,55.8,88,54.4,88h-3.6h-0.5h-0.5h-4.1c-1.4,0-2.7-0.8-3.2-2.1c-0.9-4,2.1-7.9,6.3-7.9h10.8L57.6,85.9z M66.6,58  H33.4c-0.8,0-1.5,0.4-2,1c-0.5,0.6-0.6,1.4-0.5,2.1l2,8c0.3,1.1,1.3,1.9,2.4,1.9h28.7c1.1,0,2.1-0.7,2.4-1.8l2.5-8  c0.2-0.8,0.1-1.6-0.4-2.2C68.2,58.4,67.4,58,66.6,58z M62.3,66H37.3l-0.8-3h26.6L62.3,66z M72.8,34.4c0.5,1.3-0.2,2.7-1.5,3.2  L38.4,49l1,3.2c0.4,1.3-0.4,2.7-1.7,3.1c-0.2,0.1-0.5,0.1-0.7,0.1c-1.1,0-2.1-0.7-2.4-1.8l-0.9-3l-3.4,1.2C30.1,52,29.8,52,29.5,52  c-1,0-2-0.6-2.4-1.7c-0.5-1.3,0.2-2.7,1.5-3.2l41-14.3C71,32.4,72.4,33.1,72.8,34.4z M27.2,37.3c-0.5-1.3,0.2-2.7,1.5-3.2l41-14.3  c1.3-0.5,2.7,0.2,3.2,1.5c0.5,1.3-0.2,2.7-1.5,3.2l-41,14.3C30.1,39,29.8,39,29.5,39C28.5,39,27.5,38.4,27.2,37.3z M32.9,22.1  c-0.5-1.3,0.2-2.7,1.5-3.2L45.6,15H41c-1.4,0-2.5-1.1-2.5-2.5S39.6,10,41,10h19c1.4,0,2.5,1.1,2.5,2.5c0,0.4-0.1,0.8-0.3,1.2  c0,0.1-0.1,0.1-0.1,0.2c0,0,0,0.1-0.1,0.1c-0.3,0.5-0.7,0.9-1.3,1.1l-24.6,8.7c-0.3,0.1-0.6,0.1-0.8,0.1  C34.3,23.8,33.3,23.1,32.9,22.1z M61.7,55.4c-1.3-0.4-2-1.9-1.6-3.2l3-9c0.4-1.3,1.8-2,3.2-1.6c1.3,0.4,2,1.9,1.6,3.2l-3,9  c-0.3,1-1.3,1.7-2.4,1.7C62.2,55.5,62,55.5,61.7,55.4z"/><text x="0" y="115" fill="#000000" font-size="5px" font-weight="bold" font-family="'Helvetica Neue', Helvetica, Arial-Unicode, Arial, Sans-serif">Created by Eli Revzin</text><text x="0" y="120" fill="#000000" font-size="5px" font-weight="bold" font-family="'Helvetica Neue', Helvetica, Arial-Unicode, Arial, Sans-serif">from the Noun Project</text></svg>