<svg xmlns="http://www.w3.org/2000/svg" xmlns:xlink="http://www.w3.org/1999/xlink" version="1.1" x="0px" y="0px" viewBox="0 0 100 125" enable-background="new 0 0 100 100" xml:space="preserve"><path d="M25.1,69.3l-3.1-13.1c-0.2-0.6-0.5-1.2-1-1.7c-5.2-5.2-8.3-12.4-8.2-20.4C13.1,19.6,24.7,7.5,39.2,6.6  C49,6,57.8,10.3,63.3,17.4c-0.9,1.8-1.7,3.6-2.4,5.4c-4.5-7.5-13-12.2-22.5-11.2C28,12.8,19.5,21,18.1,31.4  c-0.7,5.3,0.3,10.3,2.7,14.5c0.8,1.4,1.7,2.7,2.7,3.9c2,2.3,3.3,5,4,8l0.4,1.8l2,8.4c0.3,1.2-0.3,2.5-1.4,3  c-0.3,0.2-0.7,0.2-1.1,0.2C26.4,71.2,25.3,70.5,25.1,69.3z M39,47.5v10.2v5v5.7c0,1.4,1.1,2.5,2.5,2.5s2.5-1.1,2.5-2.5v-5.8v-5V47.5  c0-1.4-1.1-2.5-2.5-2.5S39,46.1,39,47.5z M56.5,76.1c0,0.5-0.1,0.9-0.3,1.3c-0.4,0.8-0.7,1.6-0.9,2.5c-0.7,3-2,8.6-2,8.6  C52,91.7,48.9,94,45.4,94h-4.1h-0.5h-0.5h-3.6c-3.5,0-6.7-2.4-7.9-5.7l-0.1-0.4l-1.8-7.8C26.5,79,26.1,78,25.7,77  c-0.1-0.3-0.2-0.5-0.2-0.9c0.1-1.3,1.3-2.1,2.6-2.1h25.7C55.2,74,56.4,74.7,56.5,76.1z M50.5,79H39.7c-4.2,0-7.2,3.9-6.3,7.9  c0.6,1.3,1.8,2.1,3.2,2.1h4.1h0.5h0.5h3.6c1.4,0,2.7-0.8,3.2-2.1L50.5,79z M60.5,47.1c-0.6,1-1.3,1.9-2,2.7c-2,2.3-3.3,5-4,8  l-0.4,1.8l-2,8.4c-0.3,1.2,0.3,2.5,1.4,3c0.3,0.2,0.7,0.2,1.1,0.2c1.1,0,2.2-0.8,2.4-1.9l3.1-13.1c0.2-0.6,0.5-1.2,1-1.7  c0.6-0.6,1.2-1.2,1.7-1.9C61.8,50.8,61.1,49,60.5,47.1z M86.9,35.6c0-3.7,1.2-7.3,3.6-10.5c0.7-1,0.4-2.3-0.8-2.9  c-0.4-0.2-0.9-0.3-1.3-0.3c-0.8,0-1.6,0.3-2.1,1c-2.9,3.8-4.4,8.2-4.4,12.8c0,4.6,1.5,9,4.4,12.8c0.5,0.6,1.3,1,2.1,1  c0.5,0,0.9-0.1,1.4-0.3c1.2-0.6,1.5-2,0.7-3C88.1,43,86.9,39.4,86.9,35.6z M66.7,35.6c0-7.2,2.4-14.1,6.9-20.1  c0.3-0.3,0.4-0.7,0.4-1.1c0-0.7-0.4-1.3-1.1-1.7c-0.4-0.2-0.9-0.3-1.4-0.3c-0.8,0-1.6,0.3-2.1,1c-5.1,6.6-7.7,14.3-7.7,22.2  c0,8,2.7,15.7,7.8,22.3c0.5,0.6,1.3,1,2.1,1c0.5,0,0.9-0.1,1.4-0.3c1.2-0.6,1.5-2,0.7-3C69.2,49.7,66.7,42.7,66.7,35.6z M76.7,35.6  c0-5.4,1.9-10.6,5.4-15.2c0.8-1,0.4-2.3-0.7-3c-0.4-0.2-0.9-0.4-1.4-0.4c-0.8,0-1.6,0.3-2.1,1c-4,5.3-6.2,11.3-6.2,17.5  c0,6.2,2.2,12.3,6.2,17.6c0.5,0.6,1.3,1,2.1,1c0.5,0,1-0.1,1.4-0.4c1.2-0.7,1.5-2,0.7-3C78.6,46.3,76.7,41,76.7,35.6z"/><text x="0" y="115" fill="#000000" font-size="5px" font-weight="bold" font-family="'Helvetica Neue', Helvetica, Arial-Unicode, Arial, Sans-serif">Created by Eli Revzin</text><text x="0" y="120" fill="#000000" font-size="5px" font-weight="bold" font-family="'Helvetica Neue', Helvetica, Arial-Unicode, Arial, Sans-serif">from the Noun Project</text></svg>