<svg xmlns="http://www.w3.org/2000/svg" xmlns:xlink="http://www.w3.org/1999/xlink" version="1.1" x="0px" y="0px" viewBox="0 0 100 125" enable-background="new 0 0 100 100" xml:space="preserve"><path d="M62.8,70H37.1c-1.3,0-2.5,1.2-2.6,2.5c0,0.4,0,0.7,0.2,1.1c0.4,1,0.9,2.2,1.1,3.3l1.8,7.8l0.1,0.1C39,88,42.1,90,45.6,90  h3.6h0.5h0.5h4.1c3.5,0,6.7-1.9,7.9-5.2c0,0,1.3-5.4,2-8.4c0.2-0.9,0.4-1.7,0.9-2.5c0.2-0.4,0.3-1,0.3-1.5  C65.4,71.1,64.2,70,62.8,70z M57.6,82.9C57,84.2,55.8,85,54.4,85h-3.6h-0.5h-0.5h-4.1c-1.4,0-2.7-0.8-3.2-2.1  c-0.9-4,2.1-7.9,6.3-7.9h10.8L57.6,82.9z M43,48.4V17.6c0-3.3,1.9-8.1,7.1-8.1c1.8,0,3.4,0.6,4.6,1.9c2.3,2.3,2.3,5.9,2.3,6.3v30.8  c0,1.4-1.1,2.5-2.5,2.5S52,49.8,52,48.4V17.6c0-0.5-0.1-3.1-1.9-3.1c-2,0-2.1,3-2.1,3.1v30.8c0,1.4-1.1,2.5-2.5,2.5S43,49.8,43,48.4  z M33,21.8c-0.1-1.4-0.3-5.6,1.7-7.8c0.8-0.9,2-1.4,3.2-1.4c2.3,0,3.7,2,4,3.8c0.2,1.4-0.6,2.7-2,2.9c-0.7,0.1-1.4,0-1.9-0.4  c-0.1,0.8-0.1,1.7,0,2.6l0,0.2v26.8c0,1.4-1.1,2.5-2.5,2.5S33,49.8,33,48.4V21.8z M58,16.4c0.3-1.8,1.7-3.8,4-3.8  c1.2,0,2.4,0.5,3.2,1.4c2,2.2,1.9,6.4,1.8,7.8v26.7c0,1.4-1.1,2.5-2.5,2.5S62,49.8,62,48.4l0-27c0.1-0.8,0-1.8-0.1-2.6  c-0.5,0.4-1.2,0.5-1.9,0.4C58.7,19.1,57.8,17.7,58,16.4z M68.6,54.2c-0.5-0.6-1.2-1.2-2-1.2H33.4c-0.7,0-1.5,0.6-1.9,1.1  s-0.7,1.5-0.5,2.2l2,9.8c0.2,1.2,1.3,1.8,2.5,1.8h28.7c1.1,0,2.1-0.6,2.4-1.7l2.5-10C69.2,55.6,69.1,54.8,68.6,54.2z M62.2,63H37.4  l-1-5h27L62.2,63z"/><text x="0" y="115" fill="#000000" font-size="5px" font-weight="bold" font-family="'Helvetica Neue', Helvetica, Arial-Unicode, Arial, Sans-serif">Created by Eli Revzin</text><text x="0" y="120" fill="#000000" font-size="5px" font-weight="bold" font-family="'Helvetica Neue', Helvetica, Arial-Unicode, Arial, Sans-serif">from the Noun Project</text></svg>